<?xml version="1.0" encoding="UTF-8" standalone="no"?>
<svg
   fill="#646CFF"
   width="24"
   role="img"
   viewBox="0 0 24 24"
   version="1.1"
   id="svg1"
   sodipodi:docname="vite.svg"
   inkscape:version="1.3 (0e150ed6c4, 2023-07-21)"
   xmlns:inkscape="http://www.inkscape.org/namespaces/inkscape"
   xmlns:sodipodi="http://sodipodi.sourceforge.net/DTD/sodipodi-0.dtd"
   xmlns="http://www.w3.org/2000/svg"
   xmlns:svg="http://www.w3.org/2000/svg">
  <defs
     id="defs1" />
  <sodipodi:namedview
     id="namedview1"
     pagecolor="#ffffff"
     bordercolor="#000000"
     borderopacity="0.25"
     inkscape:showpageshadow="2"
     inkscape:pageopacity="0.0"
     inkscape:pagecheckerboard="0"
     inkscape:deskcolor="#d1d1d1"
     inkscape:zoom="48.875"
     inkscape:cx="11.98977"
     inkscape:cy="12"
     inkscape:window-width="2560"
     inkscape:window-height="1369"
     inkscape:window-x="-8"
     inkscape:window-y="-8"
     inkscape:window-maximized="1"
     inkscape:current-layer="svg1" />
  <path
     d="m8.286 10.578.512-8.657a.306.306 0 0 1 .247-.282L17.377.006a.306.306 0 0 1 .353.385l-1.558 5.403a.306.306 0 0 0 .352.385l2.388-.46a.306.306 0 0 1 .332.438l-6.79 13.55-.123.19a.294.294 0 0 1-.252.14c-.177 0-.35-.152-.305-.369l1.095-5.301a.306.306 0 0 0-.388-.355l-1.433.435a.306.306 0 0 1-.389-.354l.69-3.375a.306.306 0 0 0-.37-.36l-2.32.536a.306.306 0 0 1-.374-.316zm14.976-7.926L17.284 3.74l-.544 1.887 2.077-.4a.8.8 0 0 1 .84.369.8.8 0 0 1 .034.783L12.9 19.93l-.013.025-.015.023-.122.19a.801.801 0 0 1-.672.37.826.826 0 0 1-.634-.302.8.8 0 0 1-.16-.67l1.029-4.981-1.12.34a.81.81 0 0 1-.86-.262.802.802 0 0 1-.165-.67l.63-3.08-2.027.468a.808.808 0 0 1-.768-.233.81.81 0 0 1-.217-.6l.389-6.57-7.44-1.33a.612.612 0 0 0-.64.906L11.58 23.691a.612.612 0 0 0 1.066-.004l11.26-20.135a.612.612 0 0 0-.644-.9z"
     id="path1" />
  <path
     style="fill:none;stroke-width:0.0204604"
     d="m 11.983919,20.036615 c -0.07639,-0.01464 -0.203513,-0.150333 -0.219206,-0.233986 -0.0092,-0.04918 0.0043,-0.163055 0.0401,-0.337411 0.0548,-0.266948 0.417321,-2.023114 0.510468,-2.472891 0.08645,-0.417445 0.315831,-1.52809 0.432714,-2.095175 0.06124,-0.297104 0.111339,-0.567461 0.111339,-0.600795 0,-0.08078 -0.072,-0.204993 -0.143193,-0.247049 -0.08751,-0.05169 -0.191796,-0.04151 -0.47286,0.04618 -0.735272,0.229391 -1.229308,0.369981 -1.299878,0.369913 -0.157334,-1.53e-4 -0.293566,-0.138878 -0.293711,-0.299086 -7.1e-5,-0.0781 0.07072,-0.436139 0.482922,-2.442526 0.224387,-1.092196 0.223954,-1.089563 0.191837,-1.1671 -0.01488,-0.03592 -0.05081,-0.08741 -0.07984,-0.114421 -0.117159,-0.108998 -0.09285,-0.112276 -1.3883718,0.187244 -0.6562557,0.151725 -1.2328315,0.275863 -1.2812793,0.275863 -0.1118578,0 -0.2140018,-0.06582 -0.2656202,-0.171158 -0.038274,-0.07811 -0.037441,-0.09627 0.1492577,-3.2529273 C 8.5618553,5.7353766 8.6778186,3.77289 8.7162907,3.1202046 8.7547628,2.4675192 8.7915437,1.9038516 8.7980262,1.86761 8.8102712,1.79915 8.8889852,1.6906958 8.9502081,1.6579304 c 0.01942,-0.010393 0.342979,-0.07889 0.7190208,-0.1522147 0.8642121,-0.1685142 3.8738111,-0.75805 4.5507201,-0.89141878 0.28133,-0.0554293 0.96266,-0.18919421 1.514066,-0.2972553 0.551407,-0.10806108 1.140319,-0.22360225 1.308692,-0.25675816 0.168374,-0.0331559 0.347914,-0.06024904363 0.398977,-0.06020697714 0.16893,1.3916113e-4 0.307444,0.13231653714 0.3076,0.29352869714 4.2e-5,0.0433243 -0.06976,0.31953913 -0.155125,0.61381074 -0.08536,0.29427158 -0.223034,0.76982198 -0.305942,1.05677848 -0.258213,0.8937236 -1.07709,3.730355 -1.098348,3.8047341 -0.04684,0.1638961 0.02639,0.3224378 0.175192,0.3792649 0.08057,0.030769 0.10257,0.031015 0.250381,0.0028 0.148934,-0.028429 0.813141,-0.156755 1.870492,-0.3613819 0.23069,-0.044645 0.457206,-0.081173 0.503368,-0.081172 0.160214,1.2e-6 0.294485,0.1435853 0.294554,0.3149833 2.6e-5,0.065101 -0.624136,1.3254766 -3.409538,6.8849102 -1.875263,3.742872 -3.445525,6.862159 -3.489472,6.931749 -0.109266,0.173024 -0.225721,0.230109 -0.400927,0.196533 z"
     id="path2" />
  <path
     style="fill:none;stroke-width:0.0204604"
     d="m 11.983919,20.036615 c -0.07639,-0.01464 -0.203513,-0.150333 -0.219206,-0.233986 -0.0092,-0.04918 0.0043,-0.163055 0.0401,-0.337411 0.0548,-0.266948 0.417321,-2.023114 0.510468,-2.472891 0.08645,-0.417445 0.315831,-1.52809 0.432714,-2.095175 0.06124,-0.297104 0.111339,-0.567461 0.111339,-0.600795 0,-0.08078 -0.072,-0.204993 -0.143193,-0.247049 -0.08751,-0.05169 -0.191796,-0.04151 -0.47286,0.04618 -0.735272,0.229391 -1.229308,0.369981 -1.299878,0.369913 -0.157334,-1.53e-4 -0.293566,-0.138878 -0.293711,-0.299086 -7.1e-5,-0.0781 0.07072,-0.436139 0.482922,-2.442526 0.224387,-1.092196 0.223954,-1.089563 0.191837,-1.1671 -0.01488,-0.03592 -0.05081,-0.08741 -0.07984,-0.114421 -0.117159,-0.108998 -0.09285,-0.112276 -1.3883718,0.187244 -0.6562557,0.151725 -1.2328315,0.275863 -1.2812793,0.275863 -0.1118578,0 -0.2140018,-0.06582 -0.2656202,-0.171158 -0.038274,-0.07811 -0.037441,-0.09627 0.1492577,-3.2529273 C 8.5618553,5.7353766 8.6778186,3.77289 8.7162907,3.1202046 8.7547628,2.4675192 8.7915437,1.9038516 8.7980262,1.86761 8.8102712,1.79915 8.8889852,1.6906958 8.9502081,1.6579304 c 0.01942,-0.010393 0.342979,-0.07889 0.7190208,-0.1522147 0.8642121,-0.1685142 3.8738111,-0.75805 4.5507201,-0.89141878 0.28133,-0.0554293 0.96266,-0.18919421 1.514066,-0.2972553 0.551407,-0.10806108 1.140319,-0.22360225 1.308692,-0.25675816 0.168374,-0.0331559 0.347914,-0.06024904363 0.398977,-0.06020697714 0.16893,1.3916113e-4 0.307444,0.13231653714 0.3076,0.29352869714 4.2e-5,0.0433243 -0.06976,0.31953913 -0.155125,0.61381074 -0.08536,0.29427158 -0.223034,0.76982198 -0.305942,1.05677848 -0.258213,0.8937236 -1.07709,3.730355 -1.098348,3.8047341 -0.04684,0.1638961 0.02639,0.3224378 0.175192,0.3792649 0.08057,0.030769 0.10257,0.031015 0.250381,0.0028 0.148934,-0.028429 0.813141,-0.156755 1.870492,-0.3613819 0.23069,-0.044645 0.457206,-0.081173 0.503368,-0.081172 0.160214,1.2e-6 0.294485,0.1435853 0.294554,0.3149833 2.6e-5,0.065101 -0.624136,1.3254766 -3.409538,6.8849102 -1.875263,3.742872 -3.445525,6.862159 -3.489472,6.931749 -0.109266,0.173024 -0.225721,0.230109 -0.400927,0.196533 z"
     id="path3" />
  <path
     style="fill:none;stroke-width:0.0204604"
     d="m 11.983919,20.036615 c -0.07639,-0.01464 -0.203513,-0.150333 -0.219206,-0.233986 -0.0092,-0.04918 0.0043,-0.163055 0.0401,-0.337411 0.0548,-0.266948 0.417321,-2.023114 0.510468,-2.472891 0.08645,-0.417445 0.315831,-1.52809 0.432714,-2.095175 0.06124,-0.297104 0.111339,-0.567461 0.111339,-0.600795 0,-0.08078 -0.072,-0.204993 -0.143193,-0.247049 -0.08751,-0.05169 -0.191796,-0.04151 -0.47286,0.04618 -0.735272,0.229391 -1.229308,0.369981 -1.299878,0.369913 -0.157334,-1.53e-4 -0.293566,-0.138878 -0.293711,-0.299086 -7.1e-5,-0.0781 0.07072,-0.436139 0.482922,-2.442526 0.224387,-1.092196 0.223954,-1.089563 0.191837,-1.1671 -0.01488,-0.03592 -0.05081,-0.08741 -0.07984,-0.114421 -0.117159,-0.108998 -0.09285,-0.112276 -1.3883718,0.187244 -0.6562557,0.151725 -1.2328315,0.275863 -1.2812793,0.275863 -0.1118578,0 -0.2140018,-0.06582 -0.2656202,-0.171158 -0.038274,-0.07811 -0.037441,-0.09627 0.1492577,-3.2529273 C 8.5618553,5.7353766 8.6778186,3.77289 8.7162907,3.1202046 8.7547628,2.4675192 8.7915437,1.9038516 8.7980262,1.86761 8.8102712,1.79915 8.8889852,1.6906958 8.9502081,1.6579304 c 0.01942,-0.010393 0.342979,-0.07889 0.7190208,-0.1522147 0.8642121,-0.1685142 3.8738111,-0.75805 4.5507201,-0.89141878 0.28133,-0.0554293 0.96266,-0.18919421 1.514066,-0.2972553 0.551407,-0.10806108 1.140319,-0.22360225 1.308692,-0.25675816 0.168374,-0.0331559 0.347914,-0.06024904363 0.398977,-0.06020697714 0.16893,1.3916113e-4 0.307444,0.13231653714 0.3076,0.29352869714 4.2e-5,0.0433243 -0.06976,0.31953913 -0.155125,0.61381074 -0.08536,0.29427158 -0.223034,0.76982198 -0.305942,1.05677848 -0.258213,0.8937236 -1.07709,3.730355 -1.098348,3.8047341 -0.04684,0.1638961 0.02639,0.3224378 0.175192,0.3792649 0.08057,0.030769 0.10257,0.031015 0.250381,0.0028 0.148934,-0.028429 0.813141,-0.156755 1.870492,-0.3613819 0.23069,-0.044645 0.457206,-0.081173 0.503368,-0.081172 0.160214,1.2e-6 0.294485,0.1435853 0.294554,0.3149833 2.6e-5,0.065101 -0.624136,1.3254766 -3.409538,6.8849102 -1.875263,3.742872 -3.445525,6.862159 -3.489472,6.931749 -0.109266,0.173024 -0.225721,0.230109 -0.400927,0.196533 z"
     id="path4" />
  <path
     style="fill:#feda33;stroke-width:0.0204604;fill-opacity:1"
     d="m 11.983919,20.036615 c -0.07639,-0.01464 -0.203513,-0.150333 -0.219206,-0.233986 -0.0092,-0.04918 0.0043,-0.163055 0.0401,-0.337411 0.0548,-0.266948 0.417321,-2.023114 0.510468,-2.472891 0.08645,-0.417445 0.315831,-1.52809 0.432714,-2.095175 0.06124,-0.297104 0.111339,-0.567461 0.111339,-0.600795 0,-0.08078 -0.072,-0.204993 -0.143193,-0.247049 -0.08751,-0.05169 -0.191796,-0.04151 -0.47286,0.04618 -0.735272,0.229391 -1.229308,0.369981 -1.299878,0.369913 -0.157334,-1.53e-4 -0.293566,-0.138878 -0.293711,-0.299086 -7.1e-5,-0.0781 0.07072,-0.436139 0.482922,-2.442526 0.224387,-1.092196 0.223954,-1.089563 0.191837,-1.1671 -0.01488,-0.03592 -0.05081,-0.08741 -0.07984,-0.114421 -0.117159,-0.108998 -0.09285,-0.112276 -1.3883718,0.187244 -0.6562557,0.151725 -1.2328315,0.275863 -1.2812793,0.275863 -0.1118578,0 -0.2140018,-0.06582 -0.2656202,-0.171158 -0.038274,-0.07811 -0.037441,-0.09627 0.1492577,-3.2529273 C 8.5618553,5.7353766 8.6778186,3.77289 8.7162907,3.1202046 8.7547628,2.4675192 8.7915437,1.9038516 8.7980262,1.86761 8.8102712,1.79915 8.8889852,1.6906958 8.9502081,1.6579304 c 0.01942,-0.010393 0.342979,-0.07889 0.7190208,-0.1522147 0.8642121,-0.1685142 3.8738111,-0.75805 4.5507201,-0.89141878 0.28133,-0.0554293 0.96266,-0.18919421 1.514066,-0.2972553 0.551407,-0.10806108 1.140319,-0.22360225 1.308692,-0.25675816 0.168374,-0.0331559 0.347914,-0.06024904363 0.398977,-0.06020697714 0.16893,1.3916113e-4 0.307444,0.13231653714 0.3076,0.29352869714 4.2e-5,0.0433243 -0.06976,0.31953913 -0.155125,0.61381074 -0.08536,0.29427158 -0.223034,0.76982198 -0.305942,1.05677848 -0.258213,0.8937236 -1.07709,3.730355 -1.098348,3.8047341 -0.04684,0.1638961 0.02639,0.3224378 0.175192,0.3792649 0.08057,0.030769 0.10257,0.031015 0.250381,0.0028 0.148934,-0.028429 0.813141,-0.156755 1.870492,-0.3613819 0.23069,-0.044645 0.457206,-0.081173 0.503368,-0.081172 0.160214,1.2e-6 0.294485,0.1435853 0.294554,0.3149833 2.6e-5,0.065101 -0.624136,1.3254766 -3.409538,6.8849102 -1.875263,3.742872 -3.445525,6.862159 -3.489472,6.931749 -0.109266,0.173024 -0.225721,0.230109 -0.400927,0.196533 z"
     id="path5" />
</svg>
